<?xml version="1.0" encoding="UTF-8"?>
<svg xmlns="http://www.w3.org/2000/svg" xmlns:xlink="http://www.w3.org/1999/xlink" width="240px" height="240px" viewBox="0 0 240 240" version="1.1">
<g id="surface1">
<path style=" stroke:none;fill-rule:evenodd;fill:rgb(100%,17.647059%,12.54902%);fill-opacity:1;" d="M 238.203125 53.371094 C 238.292969 53.6875 238.339844 54.011719 238.339844 54.335938 L 238.339844 104.976562 C 238.339844 106.300781 237.601562 107.523438 236.410156 108.179688 L 192.207031 132.652344 L 192.207031 181.152344 C 192.207031 182.472656 191.476562 183.691406 190.285156 184.355469 L 98.015625 235.429688 C 97.804688 235.546875 97.574219 235.621094 97.34375 235.699219 C 97.257812 235.726562 97.175781 235.777344 97.085938 235.800781 C 96.441406 235.964844 95.761719 235.964844 95.117188 235.800781 C 95.011719 235.773438 94.914062 235.71875 94.8125 235.679688 C 94.601562 235.605469 94.382812 235.542969 94.179688 235.429688 L 1.929688 184.355469 C 0.738281 183.699219 0 182.476562 0 181.152344 L 0 29.234375 C 0 28.902344 0.046875 28.578125 0.132812 28.265625 C 0.164062 28.160156 0.230469 28.0625 0.269531 27.957031 C 0.339844 27.761719 0.40625 27.5625 0.511719 27.382812 C 0.585938 27.261719 0.691406 27.167969 0.777344 27.054688 C 0.886719 26.90625 0.988281 26.753906 1.117188 26.625 C 1.230469 26.519531 1.371094 26.441406 1.496094 26.347656 C 1.636719 26.238281 1.761719 26.117188 1.921875 26.03125 L 1.925781 26.03125 L 48.054688 0.492188 C 49.242188 -0.164062 50.703125 -0.164062 51.894531 0.492188 L 98.019531 26.03125 L 98.03125 26.03125 C 98.183594 26.125 98.3125 26.238281 98.453125 26.34375 C 98.578125 26.4375 98.71875 26.519531 98.828125 26.621094 C 98.960938 26.753906 99.058594 26.90625 99.171875 27.054688 C 99.253906 27.167969 99.363281 27.261719 99.433594 27.382812 C 99.542969 27.566406 99.605469 27.761719 99.679688 27.957031 C 99.71875 28.0625 99.789062 28.160156 99.816406 28.269531 C 99.90625 28.582031 99.949219 28.90625 99.949219 29.234375 L 99.949219 124.121094 L 138.390625 102.839844 L 138.390625 54.332031 C 138.390625 54.007812 138.4375 53.679688 138.523438 53.371094 C 138.558594 53.261719 138.621094 53.164062 138.65625 53.058594 C 138.734375 52.863281 138.800781 52.667969 138.90625 52.484375 C 138.980469 52.367188 139.085938 52.269531 139.167969 52.160156 C 139.28125 52.011719 139.378906 51.859375 139.511719 51.730469 C 139.621094 51.625 139.761719 51.542969 139.886719 51.453125 C 140.03125 51.339844 140.15625 51.222656 140.308594 51.132812 L 140.3125 51.132812 L 186.445312 25.597656 C 187.632812 24.9375 189.097656 24.9375 190.285156 25.597656 L 236.414062 51.132812 C 236.578125 51.226562 236.703125 51.339844 236.847656 51.449219 C 236.964844 51.539062 237.105469 51.625 237.214844 51.726562 C 237.351562 51.859375 237.445312 52.011719 237.5625 52.160156 C 237.648438 52.269531 237.753906 52.367188 237.820312 52.484375 C 237.929688 52.667969 237.992188 52.863281 238.070312 53.058594 C 238.113281 53.164062 238.175781 53.261719 238.203125 53.371094 Z M 230.648438 102.839844 L 230.648438 60.730469 L 214.507812 69.664062 L 192.207031 82.011719 L 192.207031 124.121094 L 230.65625 102.839844 Z M 184.523438 179.015625 L 184.523438 136.878906 L 162.585938 148.925781 L 99.945312 183.300781 L 99.945312 225.835938 Z M 7.691406 35.625 L 7.691406 179.015625 L 92.257812 225.832031 L 92.257812 183.304688 L 48.078125 159.261719 L 48.0625 159.253906 L 48.042969 159.246094 C 47.894531 159.160156 47.769531 159.042969 47.628906 158.941406 C 47.511719 158.847656 47.371094 158.773438 47.265625 158.671875 L 47.257812 158.660156 C 47.132812 158.542969 47.042969 158.398438 46.9375 158.269531 C 46.84375 158.144531 46.726562 158.039062 46.652344 157.910156 L 46.644531 157.898438 C 46.558594 157.757812 46.507812 157.59375 46.445312 157.433594 C 46.382812 157.296875 46.300781 157.167969 46.261719 157.019531 L 46.261719 157.015625 C 46.214844 156.839844 46.203125 156.65625 46.1875 156.476562 C 46.167969 156.335938 46.128906 156.199219 46.128906 156.058594 L 46.128906 56.90625 L 23.832031 44.558594 L 7.691406 35.628906 Z M 49.976562 7.960938 L 11.542969 29.234375 L 49.96875 50.507812 L 88.398438 29.230469 L 49.96875 7.960938 Z M 69.964844 140.71875 L 92.261719 128.375 L 92.261719 35.625 L 76.117188 44.5625 L 53.816406 56.90625 L 53.816406 149.660156 Z M 188.367188 33.066406 L 149.9375 54.335938 L 188.367188 75.609375 L 226.789062 54.332031 Z M 184.523438 82.011719 L 162.222656 69.664062 L 146.078125 60.730469 L 146.078125 102.839844 L 168.375 115.179688 L 184.523438 124.121094 Z M 96.097656 176.90625 L 152.460938 145.964844 L 180.636719 130.503906 L 142.238281 109.246094 L 98.027344 133.722656 L 57.730469 156.027344 Z M 96.097656 176.90625 "/>
</g>
</svg>
