<svg xmlns="http://www.w3.org/2000/svg" xml:space="preserve" width="2000" height="1500" data-id="lg_VaXtr2FbEqHVQtFBDt" data-version="1" viewBox="0 0 2000 1500"><path fill="#282634" stroke="transparent" d="M0 0h2000v1500H0z"/><g data-padding="20"><g transform="translate(-1647.059 -1243.003)scale(2.57847)"><rect width="587.837" height="264.42" x="490.695" y="544.577" fill="none" rx="0" ry="0" transform="matrix(.95 0 0 .95 280 126.21)"/><path fill="#ff4057" d="M799.944 681.087q4.23-10.24 12.02-7.34 2.23-4.9 3.9-6.23 1.66-1.34 3.44-2.12t3.79-1.67q2-.89 6.23-1.56 4.23-.66 9.35-.77 5.11-.12 10.34.55t8.79 2.9q8.68 5.11 3.79 16.46.44-.22-.23.45l-2 3.78-1.56 2q-1.11 1.12-6.89 13.58-4.68 8.9-9.57 17.58-8.02 14.91-9.8 19.14 7.79-4.23 18.03-12.24 19.36-14.91 24.7-17.8 5.34-2.9 7.46-3.57 2.11-.66 4.11-.33 2.01.33 4.23 1.22l5.57 2.23q5.34 1.78 5.78 12.91.22 10.9-4.45 16.47-20.25 26.26-45.62 35.16-7.79 2.89-16.02 4.89 11.79 1.34 22.47 15.58 8.68 11.57 12.58 23.81 3.89 12.24 6.12 18.14 2.22 5.9 1.89 9.12-.33 3.23-3.78 4.9t-11.69 3.23q-3.78.66-15.58-8.91-5.11-4.22-10.9-9.23t-11.57-9.46q-13.35-10.46-18.7-10.9-.44 0-1.78-.45l-4 10.02q-3.12 7.34-6.34 15.46-3.23 8.13-7.68 14.58-6.9 4.67-16.02 3.78-10.46-1.11-13.8-8.45-2.23-6.9 7.34-40.51 6.46-23.59 11.13-41.39t8.01-29.49q3.34-11.68 4.9-18.24 1.55-6.57 3.11-12.8 3.78-14.47 8.9-24.48"/><path fill="#ff4057" d="M966.404 806.157q-4.22 2-8.23 3.11-4.01 1.12-9.35 2.23-14.02 2.89-20.25 3.34.67 2.22 6.68 5.34 4 .67 8.79-1.23 4.78-1.89 10.01-3.56t10.24-1.89 9.46 3.79q1.78 4 2.89 4.67t2 .67 2.01.66q1.11.67 3.22 5.12 2.12 4.45-1.11 8.46-3.23 4-9.9 6.9-6.68 2.89-15.58 4.67t-17.8 2.45q-20.03 1.56-30.49-3.12-15.13-5.12-19.59-20.25-5.78-20.03 6.46-46.73 5.56-12.46 17.58-26.71 10.46-12.46 23.37-18.02 14.91-6.46 31.15-6.01 17.36.44 24.04 15.13 3.33 7.79 1.33 21.81-3.56 18.25-9.35 25.82-5.78 7.34-17.58 13.35m-12.9-35.16q-11.8-2.45-18.47 13.35-2.01 4.23-3.12 8.9 7.57.89 16.02-8.46 3.12-3.78 4.68-7.67 1.55-3.9.89-6.12m79.66-28.27q14.91-6 20.02-.22 2.67 3.12 2.67 8.68v1.11q8.24-9.57 28.71-16.02 21.59-6.68 35.61-3.78 18.25 3.78 20.47 23.81 1.78 16.91-7.79 42.95-3.11 6.68-4.78 10.79-1.67 4.12-3.01 7.46-2.89 6.23-9.12 14.91-3.56 6.67-11.02 10.23-7.45 3.57-14.68 4.12-7.24.56-11.91-2.22-4.67-2.79-2.67-8.79 5.12-13.8 8.46-25.15t6.9-19.36q3.33-11.35.89-14.24-2.01-2.23-6.9.66-4.23 2.67-6.01 6.23-4.01 2.9-15.13 23.15-3.12 5.56-6.12 11.01-3.01 5.46-5.57 10.13t-4.45 7.79q-1.89 3.11-3.34 4.12-1.44 1-2.44 1.33-1.01.33-1.67.78-.67.44-1.12 2.89-.89 5.12-10.68 7.57-15.8 4-28.48-1.34-4.23-1.78-6.68-4.89-5.12-10.24 17.58-69.66 8.01-20.92 10.46-24.92 5.56-8.46 7.23-9.57t4.57.44"/><path fill="#ff4057" d="M1163.354 794.587q5.12-20.26 8.24-27.38 7.12-14.91 20.02-22.03 5.35-4.45 10.91-4.67 9.79-.45 10.24 3.78.44 4.23 1.89 5.57 1.44 1.33 3.11 2.33t3.12 2.9q1.44 1.89 1.89 7.23-31.82 117.28-68.77 134.86-17.13 7.79-35.82 3.78-17.81-4.01-25.15-16.02-8.01-12.69 4.23-26.04 6.01-7.12 16.24-2.89 2.67.89 4.68 1.78 3.78 2.67 4.78 4.67t1.56 3.56q.55 1.56 1.89 3.56 1.56.89 4.01 2.9 1.33-.67 1.78-1.12l4.89-5.78q3.79-6.9 6.23-12.8 2.45-5.9 5.12-12.46 2.67-6.57 4.9-12.8 2.22-6.23 3.67-11.24 1.45-5 2.78-9.79 1.34-4.78 3.56-11.9m30.49-101.48q7.34-14.02 20.03-14.24 11.13-.45 18.02 9.12 7.13 9.79 2.01 19.58-4.9 9.57-16.69 9.57-10.69 0-18.25-7.12-8.46-7.79-5.12-16.91m56.29 49.62q2.9-7.34 13.8-10.01 10.24-2.67 19.14.67 9.12 3.56 8.23 11.57-2.45 7.79-6.12 19.03-3.67 11.23-7.01 23.03-8.9 30.27-10.23 42.73-3.34 20.03-11.13 21.58-2.23.45-4.23.67-4.9.22-6.23 2.67-1.34 2.45-4.45 3.67-3.12 1.23-6.79 1.12t-7.45-1.78q-3.79-1.67-6.46-4.79-6.23-7.56-2.45-20.25 3.56-24.26 18.03-61.64 6.9-18.47 13.35-28.27m42.06-33.38q-10.9 2.23-17.69-1.33t-7.9-8.57 3.12-10.35q4.89-6.67 14.68-8.68 4.45-.44 6.46-.44 2 0 4.89.89 7.35.67 9.57 6.45 3.12 4.9.56 11.13t-13.69 10.9"/></g><path fill="transparent" stroke="transparent" stroke-width="2.674" d="M250 403.743h1500v692.514H250z"/></g></svg>